<?xml version="1.0" encoding="UTF-8" standalone="yes"?>
<svg width="200" height="200" viewBox="0 0 200 200" version="1.2" baseProfile="tiny-ps" xmlns="http://www.w3.org/2000/svg">
  <title>CSC Enterprises</title>
  <defs/>
  <path d="M0 0h200v200H0z" fill="#002060" fill-opacity="1" stroke="none"/>
  <g>
    <path d="M16.875 92.707c2.68-8.137 11.05-13.336 19.48-13.086 13-.027 25.993-.004 38.993-.008-.442 1.64-.903 3.278-1.375 4.91-12.012.02-24.024-.011-36.035.004-4.086-.054-8.45 1.008-11.387 4-3.942 3.887-4.317 9.707-6.035 14.688-.957 3.191-1.36 7.105.968 9.828 2.649 2.957 6.93 3.387 10.668 3.332 10.965-.008 21.93-.031 32.895.012-.402 1.668-.93 3.3-1.344 4.965-11.223.035-22.441.007-33.66.027-3.734-.047-7.605-.352-10.992-2.063-3.844-1.921-6.324-6.152-6.086-10.453.344-5.562 2.433-10.824 3.91-16.156m64.352-10.61c3.277-1.824 7.078-2.503 10.796-2.484q19.419-.006 38.836 0c-.355 1.653-.89 3.25-1.289 4.89-11.988.056-23.976.013-35.965.024-4.035-.156-8.562.692-11.257 3.97-2.407 2.765-3.528 7.237-1.25 10.41 1.894 2.417 5.242 2.847 8.117 2.835 6.32-.015 12.637-.02 18.957.004 2.281.121 5.016.7 6.183 2.895 1.141 2.726-.093 6.105-2.488 7.746-2.09 1.457-4.73 1.683-7.203 1.789-11.93.004-23.86.015-35.793-.004q.73-2.49 1.402-4.992c12.04-.082 24.082.035 36.122-.059 1.476.207 2.402-2.14.64-2.398-6.691-.13-13.406-.028-20.105-.051-3.313.058-6.844-.281-9.664-2.176-2.825-1.773-4.364-5.16-4.25-8.441.023-5.657 3.156-11.301 8.21-13.957m51.028 5.738c3.621-5.465 10.277-8.086 16.648-8.211 13.051-.047 26.098.008 39.149-.023a415 415 0 0 1-1.367 4.918c-12.008.02-24.016.015-36.02.007-4.254-.101-8.723 1.246-11.703 4.395-3.535 3.73-3.965 9.101-5.516 13.773-.863 3.04-1.687 6.559.078 9.442 1.973 3.246 6.075 4.058 9.582 4.265 11.551.102 23.098-.004 34.645.04-.43 1.628-.91 3.242-1.324 4.87-10.633.106-21.27.012-31.906.043-3.918-.054-7.997.07-11.665-1.527-3.53-1.351-6.332-4.496-7.007-8.25-.743-3.914.687-7.766 1.613-11.52 1.23-4.195 2.125-8.644 4.793-12.222M27.582 90.965c2.164-2.832 5.86-4.031 9.305-4.145 12.16-.047 24.32.032 36.48-.03-.504 1.655-.949 3.323-1.41 4.991-11.516-.008-23.031-.031-34.547.004-2.504-.086-4.926 1.508-5.531 3.992-.86 3.387-2.164 6.676-2.762 10.118-.242 2.636 2.918 3.382 4.965 3.234 11.008-.027 22.016.008 33.027-.016-.468 1.672-.93 3.344-1.406 5.008-11.539-.031-23.074.004-34.61-.031-2.898-.102-6.277-.793-7.917-3.45-1.95-3.925.383-8.195 1.293-12.085.793-2.614 1.367-5.414 3.113-7.59m58.54-2.738c1.733-.973 3.737-1.383 5.714-1.407 12.355-.015 24.715-.004 37.07-.007-.469 1.656-.898 3.328-1.422 4.968-11.941-.027-23.882.004-35.824-.011-1.008-.032-2.504.375-2.426 1.64-.023.977 1.168 1.106 1.899 1.137 6.906.008 13.808-.035 20.71.027 4.731.16 10.106 2.274 11.813 7.07 1.582 5.22-.203 11.305-4.222 14.97-3.97 3.644-9.543 4.722-14.77 4.757-12.594.02-25.184.04-37.773 0 .41-1.64.914-3.254 1.328-4.898 11.91-.133 23.828-.075 35.742-.09 4.004.094 8.469-.676 11.27-3.793 2.417-2.852 3.261-7.668.507-10.578-2.152-2.137-5.383-2.465-8.265-2.414-4.918.02-9.832-.047-14.746-.02-3.172-.004-7.012.344-9.356-2.242-1.988-3.016-.25-7.43 2.75-9.11m56.613.61c2.098-1.305 4.575-1.996 7.043-2.02 12.098-.035 24.2.04 36.297-.027a150 150 0 0 0-1.402 4.988c-11.395-.004-22.793-.027-34.188.016-2.37-.035-4.875 1.21-5.562 3.617-.98 3.496-2.238 6.938-2.969 10.488-.25 2.844 3.227 3.457 5.375 3.266 10.809-.008 21.613-.035 32.418.012-.379 1.68-.89 3.328-1.344 4.988-11.238.035-22.476.008-33.71.008-3.192-.121-7.098-.59-8.833-3.66-1.636-3.028-.144-6.407.7-9.422 1.3-4.356 2.004-9.598 6.175-12.254m37.973 28.48h3.121v.598h-1.246v3.426h-.637c-.004-1.14 0-2.285-.004-3.426h-1.234Zm3.547 0q.466.001.934-.004c.328 1.07.644 2.145.968 3.215.313-1.07.621-2.14.934-3.21h.922v4.019q-.293.005-.586.004c0-1.121.004-2.242-.004-3.363l-.977 3.363h-.578c-.344-1.133-.676-2.274-1.023-3.403-.008 1.133 0 2.266 0 3.399q-.296.006-.59 0z" stroke="none" fill-rule="nonzero" fill="#fff" fill-opacity="1"/>
  </g>
</svg>