<svg xmlns="http://www.w3.org/2000/svg" xml:space="preserve" width="3428" height="819" overflow="hidden"><defs><clipPath id="a"><path d="M486 828h3428v819H486z"/></clipPath></defs><g fill="#fff" clip-path="url(#a)" transform="translate(-486 -828)"><path d="M563.07 1084.84c52.48-159.5 216.35-261.41 381.36-256.5 254.4-.48 508.79-.03 763.19-.13a4623 4623 0 0 1-26.91 96.2c-235.12.45-470.24-.17-705.35.1-79.94-1.06-165.35 19.75-222.88 78.43-77.13 76.1-84.52 190.22-118.16 287.77-18.73 62.6-26.57 139.31 18.97 192.63 51.83 57.99 135.65 66.42 208.82 65.32 214.63-.14 429.3-.59 643.94.2-7.94 32.68-18.25 64.7-26.36 97.35-219.62.62-439.24.1-658.85.48-73.1-.9-148.89-6.85-215.19-40.38-75.23-37.67-123.76-120.6-119.12-204.84 6.74-109.07 47.67-212.16 76.54-316.63m1259.65-207.93c64.17-35.74 138.54-49.05 211.33-48.67q380.12-.21 760.24 0c-6.94 32.33-17.46 63.7-25.26 95.8-234.67 1.1-469.34.24-704.01.44-78.94-2.99-167.58 13.6-220.34 77.78-47.12 54.24-69.08 141.92-24.5 204.04 37.15 47.4 102.62 55.83 158.92 55.55 123.69-.27 247.39-.38 371.08.1 44.64 2.38 98.19 13.73 121.04 56.73 22.3 53.45-1.82 119.63-48.7 151.8-40.9 28.54-92.62 33.01-140.98 35.08-233.53.07-467.1.27-700.64-.07a4598 4598 0 0 0 27.46-97.86c235.64-1.62 471.37.72 707-1.17 28.9 4.06 47.09-41.93 12.58-46.99-131.01-2.54-262.4-.48-393.55-1-64.86 1.14-134.01-5.46-189.2-42.65-55.3-34.74-85.38-101.06-83.21-165.38.5-110.83 61.83-221.45 160.74-273.53m998.86 112.41c70.9-107.08 201.13-158.43 325.88-160.87 255.43-.9 510.89.17 766.32-.45a6679 6679 0 0 1-26.8 96.38c-235.02.34-470.03.28-705.01.14-83.28-2.03-170.78 24.42-229.14 86.13-69.15 73.1-77.6 178.38-107.95 269.91-16.91 59.54-33.03 128.51 1.58 185.06 38.6 63.57 118.85 79.5 187.55 83.59 226.05 2 452.12-.07 678.13.72-8.38 31.92-17.84 63.53-25.95 95.52-208.13 2.06-416.34.2-624.51.83-76.71-1.07-156.52 1.37-228.35-29.96-69.15-26.52-123.96-88.13-137.16-161.7-14.51-76.71 13.47-152.18 31.62-225.72 24.02-82.21 41.58-169.44 93.79-239.58m-2048.9 61.37c42.31-55.55 114.66-79.05 182.13-81.25 238.03-.9 476.07.62 714.08-.58-9.83 32.4-18.6 65.14-27.6 97.79-225.43-.1-450.85-.62-676.24.1-49.01-1.72-96.4 29.58-108.26 78.25-16.81 66.36-42.35 130.82-54.07 198.24-4.77 51.7 57.09 66.31 97.16 63.39 215.5-.55 430.99.14 646.48-.28-9.14 32.72-18.14 65.5-27.5 98.14-225.83-.65-451.67.07-677.47-.62-56.74-1.96-122.9-15.55-154.97-67.59-38.18-76.95 7.46-160.6 25.26-236.9 15.57-51.14 26.77-106.04 61-148.7M1918.55 997c33.96-19.02 73.17-27.1 111.87-27.58 241.85-.24 483.74-.04 725.63-.14-9.18 32.5-17.56 65.25-27.84 97.41-233.74-.58-467.48.07-701.23-.24-19.76-.62-49.04 7.33-47.53 32.16-.44 19.16 22.89 21.67 37.22 22.26 135.14.17 270.28-.66 405.38.51 92.63 3.17 197.83 44.62 231.2 138.59 30.97 102.26-3.95 221.52-82.62 293.37-77.67 71.38-186.83 92.5-289.14 93.22-246.46.41-492.92.76-739.38 0 8.04-32.16 17.9-63.8 25.98-95.97 233.16-2.61 466.46-1.48 699.68-1.75 78.33 1.79 165.76-13.28 220.55-74.4 47.36-55.87 63.85-150.25 9.96-207.25-42.13-41.93-105.34-48.3-161.77-47.3-96.27.32-192.47-.96-288.7-.44-62.03-.07-137.2 6.74-183.11-43.9-38.88-59.09-4.92-145.63 53.85-178.55m1108.15 11.97c41.1-25.59 89.6-39.1 137.92-39.62 236.8-.66 473.64.82 710.44-.52a2934 2934 0 0 0-27.4 97.8c-223.08-.08-446.17-.56-669.25.27-46.4-.69-95.41 23.73-108.85 70.92-19.21 68.49-43.8 135.94-58.12 205.53-4.88 55.69 63.17 67.73 105.24 63.98 211.5-.17 423-.72 634.5.24-7.41 32.95-17.38 65.22-26.31 97.76-219.96.68-439.92.13-659.88.13-62.41-2.34-138.85-11.52-172.84-71.75-32-59.27-2.85-125.52 13.68-184.6 25.46-85.38 39.2-188.1 120.87-240.14M3770 1567.08h61.15v11.73l-24.44-.01c.05 22.38-.01 44.77.03 67.15q-6.25-.03-12.51-.02c-.03-22.37.07-44.75-.05-67.12l-24.18-.01zm69.45-.01q9.15.03 18.3-.01c6.44 20.96 12.62 42 18.96 63 6.13-21 12.14-42 18.28-62.98H3913v78.83q-5.72.03-11.44.01c-.05-21.95.09-43.91-.07-65.88q-9.59 32.95-19.16 65.9c-3.77-.02-7.52.01-11.28-.02-6.76-22.2-13.23-44.49-20.02-66.66-.16 22.2-.02 44.43-.07 66.65q-5.74.04-11.49 0c-.02-26.28.01-52.56-.02-78.84"/></g></svg>