<svg width="998" height="238" xmlns="http://www.w3.org/2000/svg" xmlns:xlink="http://www.w3.org/1999/xlink" xml:space="preserve" overflow="hidden"><defs><clipPath id="clip0"><rect x="141" y="75" width="998" height="238"/></clipPath></defs><g clip-path="url(#clip0)" transform="translate(-141 -75)"><path d="M36.9845 91.8814C52.248 45.5309 99.908 15.9133 147.898 17.3427 221.887 17.2028 295.876 17.3327 369.865 17.3027 367.376 26.6588 364.727 35.9649 362.038 45.261 293.657 45.3909 225.275 45.211 156.894 45.291 133.644 44.9811 108.804 51.0286 92.0713 68.0814 69.6407 90.1921 67.4916 123.358 57.7058 151.706 52.258 169.899 49.979 192.189 63.2234 207.683 78.2971 224.536 102.677 226.985 123.958 226.665 186.382 226.625 248.815 226.495 311.239 226.725 308.93 236.221 305.931 245.527 303.572 255.013 239.699 255.193 175.826 255.043 111.953 255.153 90.6919 254.893 68.6512 253.164 49.3693 243.418 27.4885 232.472 13.3744 208.372 14.7238 183.893 16.683 152.196 28.588 122.239 36.9845 91.8814ZM403.341 31.4568C422.003 21.0711 443.634 17.2028 464.805 17.3127 538.504 17.2727 612.213 17.2727 685.912 17.3127 683.893 26.7088 680.834 35.8249 678.565 45.151 610.314 45.4709 542.062 45.221 473.811 45.281 450.851 44.4113 425.071 49.2293 409.728 67.8815 396.024 83.6449 389.636 109.124 402.601 127.177 413.406 140.951 432.448 143.4 448.821 143.32 484.796 143.24 520.771 143.21 556.746 143.35 569.731 144.039 585.304 147.338 591.951 159.833 598.439 175.366 591.422 194.598 577.787 203.944 565.892 212.241 550.849 213.54 536.784 214.14 468.863 214.16 400.932 214.22 333.01 214.12 335.759 204.664 338.458 195.198 340.997 185.682 409.528 185.212 478.089 185.892 546.62 185.342 555.027 186.522 560.315 173.157 550.279 171.688 512.175 170.948 473.961 171.548 435.817 171.398 416.955 171.728 396.843 169.809 380.79 159.003 364.707 148.907 355.96 129.636 356.59 110.943 356.74 78.7369 374.573 46.5904 403.341 31.4568ZM693.849 64.1231C714.47 33.0061 752.344 18.0824 788.629 17.3727 862.917 17.1128 937.216 17.4227 1011.51 17.2428 1008.98 26.5988 1006.38 35.9349 1003.71 45.251 935.357 45.3509 867.006 45.331 798.664 45.291 774.445 44.7012 748.995 52.388 732.022 70.3204 711.911 91.5615 709.452 122.159 700.626 148.758 695.708 166.06 691.02 186.102 701.085 202.535 712.311 221.007 735.651 225.635 755.633 226.825 821.375 227.404 887.127 226.805 952.86 227.035 950.421 236.311 947.672 245.497 945.313 254.793 884.778 255.393 824.224 254.853 763.679 255.033 741.369 254.723 718.158 255.433 697.267 246.326 677.156 238.62 661.212 220.717 657.374 199.336 653.156 177.046 661.292 155.115 666.57 133.744 673.557 109.854 678.665 84.5045 693.849 64.1231ZM97.9488 81.9556C110.254 65.8123 131.295 58.9852 150.917 58.3455 220.148 58.0856 289.378 58.5254 358.599 58.1756 355.741 67.5916 353.192 77.1076 350.573 86.5936 285.01 86.5636 219.448 86.4137 153.895 86.6236 139.641 86.1238 125.857 95.22 122.409 109.364 117.521 128.646 110.094 147.378 106.685 166.97 105.296 181.994 123.288 186.242 134.943 185.392 197.617 185.232 260.291 185.432 322.964 185.312 320.305 194.818 317.687 204.344 314.968 213.83 249.285 213.64 183.603 213.85 117.93 213.65 101.427 213.08 82.1855 209.132 72.8594 194.008 61.7541 171.648 75.0285 147.338 80.2063 125.167 84.7344 110.304 87.993 94.3504 97.9488 81.9556ZM431.209 66.3521C441.085 60.8244 452.49 58.4754 463.745 58.3355 534.086 58.2655 604.436 58.3255 674.786 58.2955 672.118 67.7415 669.679 77.2575 666.69 86.6036 598.708 86.4337 530.727 86.6236 462.746 86.5336 456.998 86.3537 448.482 88.6627 448.921 95.8797 448.791 101.447 455.579 102.177 459.747 102.347 499.05 102.397 538.354 102.157 577.647 102.497 604.586 103.417 635.183 115.461 644.889 142.77 653.895 172.488 643.74 207.143 620.859 228.024 598.269 248.765 566.522 254.903 536.764 255.113 465.085 255.233 393.405 255.333 321.725 255.113 324.064 245.767 326.933 236.571 329.282 227.225 397.093 226.465 464.945 226.795 532.776 226.715 555.557 227.235 580.986 222.856 596.919 205.094 610.693 188.861 615.491 161.432 599.818 144.869 587.563 132.684 569.181 130.835 552.768 131.125 524.77 131.215 496.791 130.845 468.803 130.995 450.761 130.975 428.9 132.954 415.545 118.24 404.24 101.068 414.116 75.9181 431.209 66.3521ZM753.503 69.8307C765.458 62.3938 779.562 58.4654 793.617 58.3155 862.488 58.1256 931.369 58.5554 1000.24 58.1656 997.421 67.5916 994.762 77.0676 992.273 86.5836 927.39 86.5636 862.508 86.4237 797.625 86.6636 784.131 86.4637 769.877 93.5607 765.968 107.275 760.381 127.177 753.234 146.778 749.065 167 747.646 183.183 767.438 186.682 779.672 185.592 841.187 185.542 902.701 185.382 964.215 185.662 962.056 195.238 959.157 204.614 956.558 214.07 892.585 214.27 828.612 214.11 764.639 214.11 746.486 213.43 724.256 210.761 714.37 193.259 705.064 176.036 713.54 156.784 718.348 139.611 725.755 114.802 729.753 84.9543 753.503 69.8307Z" fill="#FFFFFF" transform="matrix(1.001 0 0 1 126.416 57.7572)"/></g></svg>